<svg width="22" height="22" viewBox="0 0 22 22" fill="none" xmlns="http://www.w3.org/2000/svg">
<g clip-path="url(#clip0_1253_348)">
<rect x="9.36454" y="0.291223" width="11.9524" height="16.9511" rx="1.75" transform="rotate(10.4572 9.36454 0.291223)" fill="#0F1115" stroke="#5F5F60" stroke-width="0.5"/>
<path d="M13.1745 12.6812C13.0675 12.6942 12.9084 12.6515 12.8222 12.5868C11.9767 11.6616 10.6476 9.44364 11.1404 7.6044C11.4083 6.60456 12.1337 6.15095 13.006 6.38469C13.5231 6.52326 14.0687 7.3698 14.2378 7.88676C14.6427 7.5236 15.4287 7.03385 16.0568 7.20215C16.9291 7.43589 17.3305 8.19141 17.0626 9.19124C16.4876 11.337 14.0132 12.3167 13.1745 12.6812Z" fill="url(#paint0_linear_1253_348)"/>
<rect x="0.781654" y="5.78413" width="11.9524" height="16.9511" rx="1.75" transform="rotate(-14.6472 0.781654 5.78413)" fill="#0F1115" stroke="#5F5F60" stroke-width="0.5"/>
<path d="M9.56319 15.334C9.48009 15.3964 9.3267 15.4375 9.22354 15.425C8.07179 15.06 5.89315 13.8491 5.41808 12.0761C5.15982 11.1123 5.54673 10.384 6.38763 10.1586C6.88615 10.0251 7.74966 10.4688 8.13998 10.8189C8.30296 10.3206 8.72309 9.53286 9.32857 9.37062C10.1695 9.1453 10.8687 9.58258 11.127 10.5464C11.6812 12.6149 10.0876 14.6255 9.56319 15.334Z" fill="url(#paint1_linear_1253_348)"/>
</g>
<defs>
<linearGradient id="paint0_linear_1253_348" x1="14.0864" y1="8.45424" x2="12.9608" y2="12.6552" gradientUnits="userSpaceOnUse">
<stop offset="0.00170068" stop-color="#5F5F60"/>
<stop offset="1" stop-color="#2B2B2D"/>
</linearGradient>
<linearGradient id="paint1_linear_1253_348" x1="8.28709" y1="11.3656" x2="9.37218" y2="15.4153" gradientUnits="userSpaceOnUse">
<stop offset="0.00170068" stop-color="#5F5F60"/>
<stop offset="1" stop-color="#2B2B2D"/>
</linearGradient>
<clipPath id="clip0_1253_348">
<rect width="21.9983" height="22" fill="white"/>
</clipPath>
</defs>
</svg>
